<mxfile host="app.diagrams.net" modified="2024-07-10T14:16:28.402Z" agent="Mozilla/5.0 (Macintosh; Intel Mac OS X 10_15_7) AppleWebKit/605.1.15 (KHTML, like Gecko) Version/17.4.1 Safari/605.1.15" etag="Py8KkonwdkixP0M0dLF7" version="24.6.4" type="device">
  <diagram id="mJ-dKqEsO_aJzeUCnxig" name="Page-1">
    <mxGraphModel dx="-1174" dy="-244" grid="1" gridSize="10" guides="1" tooltips="1" connect="1" arrows="1" fold="1" page="1" pageScale="1" pageWidth="1100" pageHeight="850" background="none" math="0" shadow="0">
      <root>
        <mxCell id="0" />
        <mxCell id="1" parent="0" />
        <mxCell id="lfdacheNRijUE6KVIyI3-51" value="QNPU" style="rounded=1;whiteSpace=wrap;html=1;strokeWidth=2;fontFamily=Times New Roman;fontSize=20;align=center;verticalAlign=top;spacingRight=0;spacingLeft=0;spacingTop=5;spacing=0;absoluteArcSize=1;arcSize=40;fontStyle=2;" parent="1" vertex="1">
          <mxGeometry x="2420" y="920" width="580" height="280" as="geometry" />
        </mxCell>
        <mxCell id="lfdacheNRijUE6KVIyI3-36" value="QNetStack" style="rounded=1;whiteSpace=wrap;html=1;strokeWidth=2;fontFamily=Times New Roman;fontSize=20;align=center;verticalAlign=top;spacingRight=0;spacingLeft=0;spacingTop=5;spacing=0;absoluteArcSize=1;arcSize=40;fillColor=#f5f5f5;strokeColor=#666666;fontStyle=2;" parent="1" vertex="1">
          <mxGeometry x="2540" y="970" width="300" height="210" as="geometry" />
        </mxCell>
        <mxCell id="lfdacheNRijUE6KVIyI3-39" style="edgeStyle=orthogonalEdgeStyle;rounded=1;orthogonalLoop=1;jettySize=auto;html=1;strokeWidth=2;" parent="1" edge="1">
          <mxGeometry relative="1" as="geometry">
            <mxPoint x="2560" y="1040" as="targetPoint" />
            <mxPoint x="2540" y="1040" as="sourcePoint" />
          </mxGeometry>
        </mxCell>
        <mxCell id="lfdacheNRijUE6KVIyI3-47" style="edgeStyle=orthogonalEdgeStyle;rounded=1;orthogonalLoop=1;jettySize=auto;html=1;exitX=1;exitY=0.5;exitDx=0;exitDy=0;strokeWidth=2;" parent="1" source="lfdacheNRijUE6KVIyI3-41" edge="1">
          <mxGeometry relative="1" as="geometry">
            <mxPoint x="2840" y="1040" as="targetPoint" />
          </mxGeometry>
        </mxCell>
        <mxCell id="lfdacheNRijUE6KVIyI3-48" style="edgeStyle=orthogonalEdgeStyle;rounded=1;orthogonalLoop=1;jettySize=auto;html=1;exitX=1;exitY=0.5;exitDx=0;exitDy=0;strokeWidth=2;" parent="1" edge="1">
          <mxGeometry relative="1" as="geometry">
            <mxPoint x="3040" y="1040" as="targetPoint" />
            <mxPoint x="2840" y="1040" as="sourcePoint" />
          </mxGeometry>
        </mxCell>
        <mxCell id="lfdacheNRijUE6KVIyI3-44" style="edgeStyle=orthogonalEdgeStyle;rounded=1;orthogonalLoop=1;jettySize=auto;html=1;exitX=1;exitY=0.5;exitDx=0;exitDy=0;strokeWidth=2;" parent="1" source="lfdacheNRijUE6KVIyI3-35" edge="1">
          <mxGeometry relative="1" as="geometry">
            <mxPoint x="2710" y="1040" as="targetPoint" />
          </mxGeometry>
        </mxCell>
        <mxCell id="lfdacheNRijUE6KVIyI3-35" value="Ent. requests" style="rounded=0;whiteSpace=wrap;html=1;strokeWidth=2;fontFamily=Times New Roman;fontSize=20;align=center;verticalAlign=middle;spacingRight=0;spacingLeft=0;spacingTop=0;spacing=0;" parent="1" vertex="1">
          <mxGeometry x="2560" y="1020" width="130" height="40" as="geometry" />
        </mxCell>
        <mxCell id="lfdacheNRijUE6KVIyI3-55" style="edgeStyle=orthogonalEdgeStyle;rounded=1;orthogonalLoop=1;jettySize=auto;html=1;exitX=0.5;exitY=1;exitDx=0;exitDy=0;strokeWidth=2;" parent="1" source="lfdacheNRijUE6KVIyI3-37" edge="1">
          <mxGeometry relative="1" as="geometry">
            <mxPoint x="2540" y="1040" as="targetPoint" />
            <Array as="points">
              <mxPoint x="2480" y="1040" />
            </Array>
          </mxGeometry>
        </mxCell>
        <mxCell id="lfdacheNRijUE6KVIyI3-37" value="EMU" style="rounded=1;whiteSpace=wrap;html=1;strokeWidth=2;fontFamily=Times New Roman;fontSize=20;align=center;verticalAlign=middle;spacingRight=0;spacingLeft=0;spacingTop=0;spacing=0;absoluteArcSize=1;arcSize=40;fillColor=#f5f5f5;strokeColor=#666666;fontStyle=2;" parent="1" vertex="1">
          <mxGeometry x="2440" y="980" width="80" height="40" as="geometry" />
        </mxCell>
        <mxCell id="lfdacheNRijUE6KVIyI3-45" style="edgeStyle=orthogonalEdgeStyle;rounded=1;orthogonalLoop=1;jettySize=auto;html=1;exitX=1;exitY=0.5;exitDx=0;exitDy=0;strokeWidth=2;" parent="1" source="lfdacheNRijUE6KVIyI3-40" edge="1">
          <mxGeometry relative="1" as="geometry">
            <mxPoint x="2710" y="1120" as="targetPoint" />
          </mxGeometry>
        </mxCell>
        <mxCell id="lfdacheNRijUE6KVIyI3-40" value="Net. schedule" style="rounded=0;whiteSpace=wrap;html=1;strokeWidth=2;fontFamily=Times New Roman;fontSize=20;align=center;verticalAlign=middle;spacingRight=0;spacingLeft=0;spacingTop=0;spacing=0;" parent="1" vertex="1">
          <mxGeometry x="2560" y="1100" width="130" height="40" as="geometry" />
        </mxCell>
        <mxCell id="lfdacheNRijUE6KVIyI3-41" value="DQP" style="rounded=1;whiteSpace=wrap;html=1;strokeWidth=2;fontFamily=Times New Roman;fontSize=20;align=center;verticalAlign=middle;spacingRight=0;spacingLeft=0;spacingTop=0;spacing=0;absoluteArcSize=1;arcSize=40;fontStyle=0;" parent="1" vertex="1">
          <mxGeometry x="2710" y="1020" width="100" height="40" as="geometry" />
        </mxCell>
        <mxCell id="lfdacheNRijUE6KVIyI3-42" value="QEGP" style="rounded=1;whiteSpace=wrap;html=1;strokeWidth=2;fontFamily=Times New Roman;fontSize=20;align=center;verticalAlign=middle;spacingRight=0;spacingLeft=0;spacingTop=0;spacing=0;absoluteArcSize=1;arcSize=40;fontStyle=0;" parent="1" vertex="1">
          <mxGeometry x="2710" y="1100" width="100" height="40" as="geometry" />
        </mxCell>
        <mxCell id="lfdacheNRijUE6KVIyI3-54" value="From centralized control plane" style="text;html=1;strokeColor=none;fillColor=none;align=center;verticalAlign=middle;whiteSpace=wrap;rounded=0;fontSize=20;fontColor=#000000;fontFamily=Times New Roman;spacing=0;" parent="1" vertex="1">
          <mxGeometry x="2840" y="1060" width="160" height="60" as="geometry" />
        </mxCell>
        <mxCell id="lfdacheNRijUE6KVIyI3-56" style="edgeStyle=orthogonalEdgeStyle;rounded=1;orthogonalLoop=1;jettySize=auto;html=1;entryX=0;entryY=0.5;entryDx=0;entryDy=0;strokeWidth=2;" parent="1" edge="1">
          <mxGeometry relative="1" as="geometry">
            <mxPoint x="3040" y="1120" as="sourcePoint" />
            <mxPoint x="2840" y="1120" as="targetPoint" />
          </mxGeometry>
        </mxCell>
        <mxCell id="lfdacheNRijUE6KVIyI3-57" style="edgeStyle=orthogonalEdgeStyle;rounded=1;orthogonalLoop=1;jettySize=auto;html=1;strokeWidth=2;exitX=0;exitY=1;exitDx=0;exitDy=0;entryX=0.5;entryY=1;entryDx=0;entryDy=0;" parent="1" source="lfdacheNRijUE6KVIyI3-54" target="lfdacheNRijUE6KVIyI3-40" edge="1">
          <mxGeometry relative="1" as="geometry">
            <mxPoint x="2570" y="1120" as="targetPoint" />
            <mxPoint x="2540" y="1120" as="sourcePoint" />
            <Array as="points">
              <mxPoint x="2820" y="1120" />
              <mxPoint x="2820" y="1160" />
              <mxPoint x="2625" y="1160" />
            </Array>
          </mxGeometry>
        </mxCell>
        <mxCell id="lfdacheNRijUE6KVIyI3-58" value="To next hop&#39;s QNPU" style="text;html=1;strokeColor=none;fillColor=none;align=center;verticalAlign=middle;whiteSpace=wrap;rounded=0;fontSize=20;fontColor=#000000;fontFamily=Times New Roman;spacing=0;" parent="1" vertex="1">
          <mxGeometry x="2840" y="980" width="160" height="60" as="geometry" />
        </mxCell>
        <mxCell id="E1msB4GydwIQxK-7LsMF-1" style="edgeStyle=orthogonalEdgeStyle;rounded=1;orthogonalLoop=1;jettySize=auto;html=1;exitX=0.5;exitY=1;exitDx=0;exitDy=0;strokeWidth=2;entryX=0.5;entryY=0;entryDx=0;entryDy=0;" edge="1" parent="1" source="lfdacheNRijUE6KVIyI3-41" target="lfdacheNRijUE6KVIyI3-42">
          <mxGeometry relative="1" as="geometry">
            <mxPoint x="2860" y="1340" as="targetPoint" />
            <Array as="points">
              <mxPoint x="2760" y="1070" />
              <mxPoint x="2760" y="1070" />
            </Array>
            <mxPoint x="2800" y="1320" as="sourcePoint" />
          </mxGeometry>
        </mxCell>
        <mxCell id="E1msB4GydwIQxK-7LsMF-2" value="Enqueue request" style="text;html=1;strokeColor=none;fillColor=none;align=center;verticalAlign=middle;whiteSpace=wrap;rounded=0;fontSize=20;fontColor=#000000;fontFamily=Times New Roman;spacing=0;" vertex="1" parent="1">
          <mxGeometry x="2607" y="1050" width="160" height="50" as="geometry" />
        </mxCell>
      </root>
    </mxGraphModel>
  </diagram>
</mxfile>
